<?xml version="1.0" encoding="UTF-8" standalone="no"?>
<svg
   class="service-flow-logo"
   viewBox="0 0 160 90"
   version="1.1"
   id="svg9"
   sodipodi:docname="logo.svg"
   inkscape:version="1.4 (86a8ad7, 2024-10-11)"
   xmlns:inkscape="http://www.inkscape.org/namespaces/inkscape"
   xmlns:sodipodi="http://sodipodi.sourceforge.net/DTD/sodipodi-0.dtd"
   xmlns="http://www.w3.org/2000/svg"
   xmlns:svg="http://www.w3.org/2000/svg">

   
  <sodipodi:namedview
     id="namedview9"
     pagecolor="#ffffff"
     bordercolor="#000000"
     borderopacity="0.25"
     inkscape:showpageshadow="2"
     inkscape:pageopacity="0.0"
     inkscape:pagecheckerboard="0"
     inkscape:deskcolor="#d1d1d1"
     inkscape:zoom="2"
     inkscape:cx="39"
     inkscape:cy="151.25"
     inkscape:window-width="1920"
     inkscape:window-height="991"
     inkscape:window-x="-9"
     inkscape:window-y="-9"
     inkscape:window-maximized="1"
     inkscape:current-layer="svg9" />
  <!-- gradientes brillantes -->
  <defs
     id="defs4">
    <linearGradient
       id="grad1"
       x1="9.362274"
       y1="15.380879"
       x2="45.250991"
       y2="51.269596"
       gradientTransform="matrix(2.1789578,0,-0.06950959,1.3263221,-4.5,13)"
       gradientUnits="userSpaceOnUse">
      <stop
         offset="0%"
         style="stop-color:#ffffff; stop-opacity:1"
         id="stop1" />
      <stop
         offset="100%"
         style="stop-color:#2D79F3; stop-opacity:1"
         id="stop2" />
    </linearGradient>
    <linearGradient
       id="grad2"
       x1="9.362274"
       y1="15.380879"
       x2="45.250991"
       y2="51.269596"
       gradientTransform="matrix(2.5634798,0,0.10911233,1.560379,24,0)"
       gradientUnits="userSpaceOnUse">
      <stop
         offset="0%"
         style="stop-color:#ffffff; stop-opacity:1"
         id="stop3" />
      <stop
         offset="100%"
         style="stop-color:#4DAAFF; stop-opacity:1"
         id="stop4" />
    </linearGradient>
  </defs>
  <!-- Primera nube -->
  <path
     d="m 25.936271,81 h 47.6 c 10.2,0 17.356373,-6.8 17.890932,-17 C 91.961763,53.8 85.518136,47 75.318136,47 72.363602,38.5 64.130881,33.4 55.630881,33.4 c -8.5,0 -15.567279,5.1 -19.323652,11.9 -5.1,0 -12.078187,3.4 -12.43456,10.2 C 16.983576,57.2 13.40539,60.6 13.049017,67.4 12.692644,74.2 19.136271,81 25.936271,81 Z"
     fill="url(#grad1)"
     stroke="none"
     id="path4"
     style="fill:url(#grad1);stroke-width:1.7" />
  <!-- Segunda nube -->
  <path
     d="m 69.594145,80 h 55.999995 c 12,0 19.44059,-8 18.60147,-20 C 143.35649,48 134.79707,40 122.79707,40 118.0978,30 107.67824,24 97.678243,24 c -10,0 -17.580439,6 -21.021024,14 -6,0 -13.720293,4 -13.160878,12 -7.860147,2 -11.58044,6 -11.021025,14 0.559414,8 9.118829,16 17.118829,16 z"
     fill="url(#grad2)"
     stroke="none"
     opacity="0.9"
     id="path5"
     style="fill:url(#grad2);stroke-width:2" />
  <!-- Líneas curvas para representar el flujo -->
  <path
     d="M 12.5,67 C 54,37 94,86 145,64"
     stroke="#ffffff"
     stroke-width="2.4"
     fill="none"
     opacity="1"
     id="path6" />
  <path
     d="M 13.5,72 C 54,42 94,91 144,69"
     stroke="#ffffff"
     stroke-width="2.4"
     fill="none"
     opacity="1"
     id="path7" />
  <path
     d="M 17,77 C 54,47 94,96 141.5,74"
     stroke="#ffffff"
     stroke-width="2.4"
     fill="none"
     opacity="1"
     id="path8" />
  <!-- Texto con mejor contraste 
  <text
     x="18"
     y="105.49548"
     font-family="Poppins, sans-serif"
     font-size="20px"
     font-weight="bold"
     fill="#1842a6"
     id="text8">Service</text>
  <text
     x="90.47567"
     y="106"
     font-family="Poppins, sans-serif"
     font-size="20px"
     font-weight="bold"
     fill="#307eff"
     id="text9">Flow</text>-->
</svg>
